<svg width="33" height="32" viewBox="0 0 33 32" fill="none" xmlns="http://www.w3.org/2000/svg"><path d="M22.293 17.6039L28.3496 19.8304L31.1357 18.807L32.1709 21.6234L28.3545 23.0267L28.3447 23.0013L28.3379 23.0228L19.9561 19.9418L15.3086 23.8607L14.5635 22.9769L6.49805 20.0111L1.93359 23.8607L0 21.5668L7.16602 15.5248L9.04102 17.7494L15.2109 20.0179L20.541 15.5248L22.293 17.6039ZM22.2539 10.5502L28.3945 12.808L31.1357 11.8002L32.1709 14.6166L28.3545 16.0189L28.3418 15.9857L19.9824 12.9115L15.3086 16.8529L14.5635 15.9691L6.49707 13.0043L1.93359 16.8529L0 14.5599L7.16602 8.51794L9.04102 10.7426L15.2109 13.0111L20.541 8.51794L22.2539 10.5502Z" fill="black"/></svg>
