<svg width="32" height="32" viewBox="0 0 32 32" fill="none" xmlns="http://www.w3.org/2000/svg" xmlns:xlink="http://www.w3.org/1999/xlink">
<path d="M23.4761 4.91162L22.4585 4.96631L26.8042 13.4634L26.894 13.52L16.5327 30.0845L14.0161 28.5103L14.0112 28.5142L14.0024 28.5015L13.9897 28.4937L13.9927 28.4868L5.10596 15.1431L5.61572 14.8022L5.1665 10.1655L5.1626 10.1636L5.16553 10.1577L5.1626 10.1226L5.18799 10.1196L9.59131 2.64307L9.61084 2.65381L23.3149 1.91553L23.4761 4.91162ZM11.3521 5.56494L8.24658 10.8394L8.65479 15.0601L15.7388 25.6958L23.4146 13.4253L19.1782 5.14307L11.3521 5.56494ZM16.9331 12.0825L17.1987 14.0151L14.9009 14.5464L13.8364 12.6938L14.5415 11.1138L16.9331 12.0825Z" fill="black"/>
<defs>
<g id="stroke0_2655_3267" data-figma-scatter-ref="stroke0_2655_3267_ref" data-figma-scatter="f0.5_w0.05_aj0_sj2_r0_s0_sw0">
</g>
<path id="stroke0_2655_3267_ref" d="M23.4761 4.91162L22.4585 4.96631L26.8042 13.4634L26.894 13.52L16.5327 30.0845L14.0161 28.5103L14.0112 28.5142L14.0024 28.5015L13.9897 28.4937L13.9927 28.4868L5.10596 15.1431L5.61572 14.8022L5.1665 10.1655L5.1626 10.1636L5.16553 10.1577L5.1626 10.1226L5.18799 10.1196L9.59131 2.64307L9.61084 2.65381L23.3149 1.91553L23.4761 4.91162ZM11.3521 5.56494L8.24658 10.8394L8.65479 15.0601L15.7388 25.6958L23.4146 13.4253L19.1782 5.14307L11.3521 5.56494ZM16.9331 12.0825L17.1987 14.0151L14.9009 14.5464L13.8364 12.6938L14.5415 11.1138L16.9331 12.0825Z"/>
</defs>
</svg>
