<svg width="32" height="32" viewBox="0 0 32 32" fill="none" xmlns="http://www.w3.org/2000/svg">
<path d="M29.9609 16.4761L27.1865 17.6167L26.751 16.5571L18.1738 18.9106L22.0127 28.2515L19.2383 29.3911L16.541 22.8296L13.8457 29.3921L11.0703 28.2515L14.4941 19.9194L9.45312 21.3032L9.4502 21.2944L9.43066 21.3032L8.16016 18.2144L6.46191 18.9438L7.08105 20.4487L4.30664 21.5894L2.03906 16.0718L4.81348 14.9312L5.32227 16.1694L7.01953 15.4399L6.02637 13.022L5.93164 12.8228L5.94238 12.8169L5.93164 12.7896L6.41699 12.5894L22.042 5.1001L21.4873 3.74854L24.2617 2.60791L29.9609 16.4761ZM9.79492 14.2974L11.1992 17.7134L25.6016 13.7622L23.1846 7.87939L9.79492 14.2974Z" fill="black"/>
</svg>
